<mxfile host="app.diagrams.net" agent="Mozilla/5.0 (Windows NT 10.0; Win64; x64) AppleWebKit/537.36 (KHTML, like Gecko) Chrome/128.0.0.0 YaBrowser/24.10.0.0 Safari/537.36" version="24.8.3">
  <diagram name="Страница — 1" id="TvUre_huKJd3Zb1SzzPW">
    <mxGraphModel dx="989" dy="540" grid="1" gridSize="10" guides="1" tooltips="1" connect="1" arrows="1" fold="1" page="1" pageScale="1" pageWidth="827" pageHeight="1169" math="0" shadow="0">
      <root>
        <mxCell id="0" />
        <mxCell id="1" parent="0" />
        <mxCell id="8HGexeS4JNVXXf2vU-yx-12" style="edgeStyle=orthogonalEdgeStyle;rounded=0;orthogonalLoop=1;jettySize=auto;html=1;entryX=0;entryY=0.5;entryDx=0;entryDy=0;" edge="1" parent="1" source="8HGexeS4JNVXXf2vU-yx-1" target="8HGexeS4JNVXXf2vU-yx-2">
          <mxGeometry relative="1" as="geometry" />
        </mxCell>
        <mxCell id="8HGexeS4JNVXXf2vU-yx-13" style="edgeStyle=orthogonalEdgeStyle;rounded=0;orthogonalLoop=1;jettySize=auto;html=1;entryX=1;entryY=0.5;entryDx=0;entryDy=0;" edge="1" parent="1" source="8HGexeS4JNVXXf2vU-yx-1" target="8HGexeS4JNVXXf2vU-yx-3">
          <mxGeometry relative="1" as="geometry" />
        </mxCell>
        <mxCell id="8HGexeS4JNVXXf2vU-yx-1" value="E0; 0,0,0" style="ellipse;whiteSpace=wrap;html=1;aspect=fixed;" vertex="1" parent="1">
          <mxGeometry x="160" y="520" width="80" height="80" as="geometry" />
        </mxCell>
        <mxCell id="8HGexeS4JNVXXf2vU-yx-11" style="edgeStyle=orthogonalEdgeStyle;rounded=0;orthogonalLoop=1;jettySize=auto;html=1;entryX=1;entryY=0.5;entryDx=0;entryDy=0;" edge="1" parent="1" source="8HGexeS4JNVXXf2vU-yx-2" target="8HGexeS4JNVXXf2vU-yx-1">
          <mxGeometry relative="1" as="geometry" />
        </mxCell>
        <mxCell id="8HGexeS4JNVXXf2vU-yx-15" style="edgeStyle=orthogonalEdgeStyle;rounded=0;orthogonalLoop=1;jettySize=auto;html=1;entryX=0.5;entryY=0;entryDx=0;entryDy=0;" edge="1" parent="1" source="8HGexeS4JNVXXf2vU-yx-2" target="8HGexeS4JNVXXf2vU-yx-4">
          <mxGeometry relative="1" as="geometry" />
        </mxCell>
        <mxCell id="8HGexeS4JNVXXf2vU-yx-2" value="E1; 0,1,0" style="ellipse;whiteSpace=wrap;html=1;aspect=fixed;" vertex="1" parent="1">
          <mxGeometry x="320" y="520" width="80" height="80" as="geometry" />
        </mxCell>
        <mxCell id="8HGexeS4JNVXXf2vU-yx-14" style="edgeStyle=orthogonalEdgeStyle;rounded=0;orthogonalLoop=1;jettySize=auto;html=1;" edge="1" parent="1" source="8HGexeS4JNVXXf2vU-yx-3" target="8HGexeS4JNVXXf2vU-yx-1">
          <mxGeometry relative="1" as="geometry" />
        </mxCell>
        <mxCell id="8HGexeS4JNVXXf2vU-yx-33" style="edgeStyle=orthogonalEdgeStyle;rounded=0;orthogonalLoop=1;jettySize=auto;html=1;entryX=0.5;entryY=0;entryDx=0;entryDy=0;" edge="1" parent="1" source="8HGexeS4JNVXXf2vU-yx-3" target="8HGexeS4JNVXXf2vU-yx-6">
          <mxGeometry relative="1" as="geometry" />
        </mxCell>
        <mxCell id="8HGexeS4JNVXXf2vU-yx-3" value="E2; 1,0,0" style="ellipse;whiteSpace=wrap;html=1;aspect=fixed;" vertex="1" parent="1">
          <mxGeometry y="520" width="80" height="80" as="geometry" />
        </mxCell>
        <mxCell id="8HGexeS4JNVXXf2vU-yx-16" style="edgeStyle=orthogonalEdgeStyle;rounded=0;orthogonalLoop=1;jettySize=auto;html=1;" edge="1" parent="1" source="8HGexeS4JNVXXf2vU-yx-4">
          <mxGeometry relative="1" as="geometry">
            <mxPoint x="360" y="600" as="targetPoint" />
          </mxGeometry>
        </mxCell>
        <mxCell id="8HGexeS4JNVXXf2vU-yx-17" style="rounded=0;orthogonalLoop=1;jettySize=auto;html=1;entryX=1;entryY=1;entryDx=0;entryDy=0;startArrow=classic;startFill=1;" edge="1" parent="1" source="8HGexeS4JNVXXf2vU-yx-4" target="8HGexeS4JNVXXf2vU-yx-3">
          <mxGeometry relative="1" as="geometry" />
        </mxCell>
        <mxCell id="8HGexeS4JNVXXf2vU-yx-18" style="edgeStyle=orthogonalEdgeStyle;rounded=0;orthogonalLoop=1;jettySize=auto;html=1;entryX=0.5;entryY=0;entryDx=0;entryDy=0;" edge="1" parent="1" source="8HGexeS4JNVXXf2vU-yx-4" target="8HGexeS4JNVXXf2vU-yx-5">
          <mxGeometry relative="1" as="geometry" />
        </mxCell>
        <mxCell id="8HGexeS4JNVXXf2vU-yx-4" value="E3; 1,1,0" style="ellipse;whiteSpace=wrap;html=1;aspect=fixed;" vertex="1" parent="1">
          <mxGeometry x="320" y="680" width="80" height="80" as="geometry" />
        </mxCell>
        <mxCell id="8HGexeS4JNVXXf2vU-yx-19" style="edgeStyle=orthogonalEdgeStyle;rounded=0;orthogonalLoop=1;jettySize=auto;html=1;entryX=0.5;entryY=1;entryDx=0;entryDy=0;" edge="1" parent="1" source="8HGexeS4JNVXXf2vU-yx-5" target="8HGexeS4JNVXXf2vU-yx-4">
          <mxGeometry relative="1" as="geometry" />
        </mxCell>
        <mxCell id="8HGexeS4JNVXXf2vU-yx-20" style="edgeStyle=orthogonalEdgeStyle;rounded=0;orthogonalLoop=1;jettySize=auto;html=1;entryX=1;entryY=0.5;entryDx=0;entryDy=0;" edge="1" parent="1" source="8HGexeS4JNVXXf2vU-yx-5" target="8HGexeS4JNVXXf2vU-yx-6">
          <mxGeometry relative="1" as="geometry">
            <Array as="points">
              <mxPoint x="240" y="880" />
              <mxPoint x="240" y="720" />
            </Array>
          </mxGeometry>
        </mxCell>
        <mxCell id="8HGexeS4JNVXXf2vU-yx-22" style="edgeStyle=orthogonalEdgeStyle;rounded=0;orthogonalLoop=1;jettySize=auto;html=1;entryX=0.5;entryY=0;entryDx=0;entryDy=0;" edge="1" parent="1" source="8HGexeS4JNVXXf2vU-yx-5" target="8HGexeS4JNVXXf2vU-yx-8">
          <mxGeometry relative="1" as="geometry" />
        </mxCell>
        <mxCell id="8HGexeS4JNVXXf2vU-yx-5" value="E5; 1,1,1" style="ellipse;whiteSpace=wrap;html=1;aspect=fixed;" vertex="1" parent="1">
          <mxGeometry x="320" y="840" width="80" height="80" as="geometry" />
        </mxCell>
        <mxCell id="8HGexeS4JNVXXf2vU-yx-21" style="edgeStyle=orthogonalEdgeStyle;rounded=0;orthogonalLoop=1;jettySize=auto;html=1;entryX=0;entryY=0.5;entryDx=0;entryDy=0;" edge="1" parent="1" source="8HGexeS4JNVXXf2vU-yx-6" target="8HGexeS4JNVXXf2vU-yx-5">
          <mxGeometry relative="1" as="geometry">
            <Array as="points">
              <mxPoint x="240" y="720" />
              <mxPoint x="240" y="880" />
            </Array>
          </mxGeometry>
        </mxCell>
        <mxCell id="8HGexeS4JNVXXf2vU-yx-32" style="edgeStyle=orthogonalEdgeStyle;rounded=0;orthogonalLoop=1;jettySize=auto;html=1;entryX=0.5;entryY=0;entryDx=0;entryDy=0;" edge="1" parent="1" source="8HGexeS4JNVXXf2vU-yx-6" target="8HGexeS4JNVXXf2vU-yx-7">
          <mxGeometry relative="1" as="geometry" />
        </mxCell>
        <mxCell id="8HGexeS4JNVXXf2vU-yx-34" style="edgeStyle=orthogonalEdgeStyle;rounded=0;orthogonalLoop=1;jettySize=auto;html=1;" edge="1" parent="1" source="8HGexeS4JNVXXf2vU-yx-6" target="8HGexeS4JNVXXf2vU-yx-3">
          <mxGeometry relative="1" as="geometry" />
        </mxCell>
        <mxCell id="8HGexeS4JNVXXf2vU-yx-6" value="E4; 1,0,1" style="ellipse;whiteSpace=wrap;html=1;aspect=fixed;" vertex="1" parent="1">
          <mxGeometry y="680" width="80" height="80" as="geometry" />
        </mxCell>
        <mxCell id="8HGexeS4JNVXXf2vU-yx-30" style="edgeStyle=orthogonalEdgeStyle;rounded=0;orthogonalLoop=1;jettySize=auto;html=1;entryX=0.5;entryY=0;entryDx=0;entryDy=0;" edge="1" parent="1" source="8HGexeS4JNVXXf2vU-yx-7" target="8HGexeS4JNVXXf2vU-yx-10">
          <mxGeometry relative="1" as="geometry" />
        </mxCell>
        <mxCell id="8HGexeS4JNVXXf2vU-yx-31" style="edgeStyle=orthogonalEdgeStyle;rounded=0;orthogonalLoop=1;jettySize=auto;html=1;entryX=0.5;entryY=1;entryDx=0;entryDy=0;" edge="1" parent="1" source="8HGexeS4JNVXXf2vU-yx-7" target="8HGexeS4JNVXXf2vU-yx-6">
          <mxGeometry relative="1" as="geometry" />
        </mxCell>
        <mxCell id="8HGexeS4JNVXXf2vU-yx-57" style="rounded=0;orthogonalLoop=1;jettySize=auto;html=1;entryX=0;entryY=0;entryDx=0;entryDy=0;startArrow=classic;startFill=1;" edge="1" parent="1" source="8HGexeS4JNVXXf2vU-yx-7" target="8HGexeS4JNVXXf2vU-yx-8">
          <mxGeometry relative="1" as="geometry" />
        </mxCell>
        <mxCell id="8HGexeS4JNVXXf2vU-yx-7" value="E6; 1,0,2" style="ellipse;whiteSpace=wrap;html=1;aspect=fixed;" vertex="1" parent="1">
          <mxGeometry y="840" width="80" height="80" as="geometry" />
        </mxCell>
        <mxCell id="8HGexeS4JNVXXf2vU-yx-23" style="edgeStyle=orthogonalEdgeStyle;rounded=0;orthogonalLoop=1;jettySize=auto;html=1;entryX=0.5;entryY=1;entryDx=0;entryDy=0;" edge="1" parent="1" source="8HGexeS4JNVXXf2vU-yx-8" target="8HGexeS4JNVXXf2vU-yx-5">
          <mxGeometry relative="1" as="geometry" />
        </mxCell>
        <mxCell id="8HGexeS4JNVXXf2vU-yx-25" style="edgeStyle=orthogonalEdgeStyle;rounded=0;orthogonalLoop=1;jettySize=auto;html=1;entryX=1;entryY=0.5;entryDx=0;entryDy=0;" edge="1" parent="1" source="8HGexeS4JNVXXf2vU-yx-8" target="8HGexeS4JNVXXf2vU-yx-9">
          <mxGeometry relative="1" as="geometry" />
        </mxCell>
        <mxCell id="8HGexeS4JNVXXf2vU-yx-8" value="E7; 1,1,2" style="ellipse;whiteSpace=wrap;html=1;aspect=fixed;" vertex="1" parent="1">
          <mxGeometry x="320" y="1000" width="80" height="80" as="geometry" />
        </mxCell>
        <mxCell id="8HGexeS4JNVXXf2vU-yx-26" style="edgeStyle=orthogonalEdgeStyle;rounded=0;orthogonalLoop=1;jettySize=auto;html=1;entryX=0;entryY=0.5;entryDx=0;entryDy=0;" edge="1" parent="1" source="8HGexeS4JNVXXf2vU-yx-9" target="8HGexeS4JNVXXf2vU-yx-8">
          <mxGeometry relative="1" as="geometry" />
        </mxCell>
        <mxCell id="8HGexeS4JNVXXf2vU-yx-27" style="edgeStyle=orthogonalEdgeStyle;rounded=0;orthogonalLoop=1;jettySize=auto;html=1;" edge="1" parent="1" source="8HGexeS4JNVXXf2vU-yx-9" target="8HGexeS4JNVXXf2vU-yx-10">
          <mxGeometry relative="1" as="geometry" />
        </mxCell>
        <mxCell id="8HGexeS4JNVXXf2vU-yx-9" value="E8; 1,1,3" style="ellipse;whiteSpace=wrap;html=1;aspect=fixed;" vertex="1" parent="1">
          <mxGeometry x="160" y="1000" width="80" height="80" as="geometry" />
        </mxCell>
        <mxCell id="8HGexeS4JNVXXf2vU-yx-28" style="edgeStyle=orthogonalEdgeStyle;rounded=0;orthogonalLoop=1;jettySize=auto;html=1;entryX=0;entryY=0.5;entryDx=0;entryDy=0;" edge="1" parent="1" source="8HGexeS4JNVXXf2vU-yx-10" target="8HGexeS4JNVXXf2vU-yx-9">
          <mxGeometry relative="1" as="geometry" />
        </mxCell>
        <mxCell id="8HGexeS4JNVXXf2vU-yx-29" style="edgeStyle=orthogonalEdgeStyle;rounded=0;orthogonalLoop=1;jettySize=auto;html=1;entryX=0.5;entryY=1;entryDx=0;entryDy=0;" edge="1" parent="1" source="8HGexeS4JNVXXf2vU-yx-10" target="8HGexeS4JNVXXf2vU-yx-7">
          <mxGeometry relative="1" as="geometry" />
        </mxCell>
        <mxCell id="8HGexeS4JNVXXf2vU-yx-10" value="E9; 1,0,3" style="ellipse;whiteSpace=wrap;html=1;aspect=fixed;" vertex="1" parent="1">
          <mxGeometry y="1000" width="80" height="80" as="geometry" />
        </mxCell>
        <mxCell id="8HGexeS4JNVXXf2vU-yx-37" value="p1=0.85" style="text;html=1;align=center;verticalAlign=middle;resizable=0;points=[];autosize=1;strokeColor=none;fillColor=none;" vertex="1" parent="1">
          <mxGeometry x="345" y="458" width="70" height="30" as="geometry" />
        </mxCell>
        <mxCell id="8HGexeS4JNVXXf2vU-yx-38" value="p2=0.15" style="text;html=1;align=center;verticalAlign=middle;resizable=0;points=[];autosize=1;strokeColor=none;fillColor=none;" vertex="1" parent="1">
          <mxGeometry x="345" y="480" width="70" height="30" as="geometry" />
        </mxCell>
        <mxCell id="8HGexeS4JNVXXf2vU-yx-40" value="&lt;span style=&quot;line-height: 107%;&quot;&gt;&lt;font style=&quot;font-size: 14.6667px;&quot;&gt;λ=0.7&lt;/font&gt;&lt;/span&gt;" style="text;html=1;align=center;verticalAlign=middle;resizable=0;points=[];autosize=1;strokeColor=none;fillColor=none;" vertex="1" parent="1">
          <mxGeometry x="420" y="458" width="60" height="30" as="geometry" />
        </mxCell>
        <mxCell id="8HGexeS4JNVXXf2vU-yx-41" value="&lt;span style=&quot;color: rgb(34, 34, 34); font-family: &amp;quot;times new roman&amp;quot;; font-size: 25.6px; text-wrap: wrap; background-color: rgb(255, 255, 255);&quot;&gt;μ=&lt;/span&gt;&lt;font face=&quot;times new roman&quot; color=&quot;#222222&quot;&gt;&lt;span style=&quot;text-wrap: wrap; font-size: 15px;&quot;&gt;0.125&amp;nbsp;&lt;/span&gt;&lt;/font&gt;" style="text;html=1;align=center;verticalAlign=middle;resizable=0;points=[];autosize=1;strokeColor=none;fillColor=none;" vertex="1" parent="1">
          <mxGeometry x="419" y="475" width="90" height="40" as="geometry" />
        </mxCell>
        <mxCell id="8HGexeS4JNVXXf2vU-yx-43" value="&lt;span style=&quot;color: rgb(34, 34, 34); font-family: &amp;quot;times new roman&amp;quot;; font-style: normal; font-variant-ligatures: normal; font-variant-caps: normal; font-weight: 400; letter-spacing: normal; orphans: 2; text-align: center; text-indent: 0px; text-transform: none; widows: 2; word-spacing: 0px; -webkit-text-stroke-width: 0px; white-space: normal; background-color: rgb(255, 255, 255); text-decoration-thickness: initial; text-decoration-style: initial; text-decoration-color: initial; float: none; display: inline !important;&quot;&gt;&lt;font style=&quot;font-size: 19px;&quot;&gt;μ&lt;/font&gt;&lt;/span&gt;" style="text;whiteSpace=wrap;html=1;" vertex="1" parent="1">
          <mxGeometry x="240" y="560" width="30" height="30" as="geometry" />
        </mxCell>
        <mxCell id="8HGexeS4JNVXXf2vU-yx-44" value="&lt;span style=&quot;font-size:11.0pt;line-height:107%;&lt;br/&gt;font-family:&amp;quot;Calibri&amp;quot;,sans-serif;mso-ascii-theme-font:minor-latin;mso-fareast-font-family:&lt;br/&gt;Calibri;mso-fareast-theme-font:minor-latin;mso-hansi-theme-font:minor-latin;&lt;br/&gt;mso-bidi-font-family:&amp;quot;Times New Roman&amp;quot;;mso-bidi-theme-font:minor-bidi;&lt;br/&gt;mso-ansi-language:RU;mso-fareast-language:EN-US;mso-bidi-language:AR-SA&quot;&gt;λ*p2&lt;/span&gt;" style="edgeLabel;html=1;align=center;verticalAlign=middle;resizable=0;points=[];" vertex="1" connectable="0" parent="1">
          <mxGeometry x="300.0014285714287" y="540" as="geometry" />
        </mxCell>
        <mxCell id="8HGexeS4JNVXXf2vU-yx-45" value="&lt;span style=&quot;font-size:11.0pt;line-height:107%;&lt;br/&gt;font-family:&amp;quot;Calibri&amp;quot;,sans-serif;mso-ascii-theme-font:minor-latin;mso-fareast-font-family:&lt;br/&gt;Calibri;mso-fareast-theme-font:minor-latin;mso-hansi-theme-font:minor-latin;&lt;br/&gt;mso-bidi-font-family:&amp;quot;Times New Roman&amp;quot;;mso-bidi-theme-font:minor-bidi;&lt;br/&gt;mso-ansi-language:RU;mso-fareast-language:EN-US;mso-bidi-language:AR-SA&quot;&gt;λ*p1&lt;/span&gt;" style="edgeLabel;html=1;align=center;verticalAlign=middle;resizable=0;points=[];" vertex="1" connectable="0" parent="1">
          <mxGeometry x="100.00142857142868" y="540" as="geometry" />
        </mxCell>
        <mxCell id="8HGexeS4JNVXXf2vU-yx-47" value="&lt;span style=&quot;color: rgb(34, 34, 34); font-family: &amp;quot;times new roman&amp;quot;; font-style: normal; font-variant-ligatures: normal; font-variant-caps: normal; font-weight: 400; letter-spacing: normal; orphans: 2; text-align: center; text-indent: 0px; text-transform: none; widows: 2; word-spacing: 0px; -webkit-text-stroke-width: 0px; white-space: normal; background-color: rgb(255, 255, 255); text-decoration-thickness: initial; text-decoration-style: initial; text-decoration-color: initial; float: none; display: inline !important;&quot;&gt;&lt;font style=&quot;font-size: 19px;&quot;&gt;μ&lt;/font&gt;&lt;/span&gt;" style="text;whiteSpace=wrap;html=1;" vertex="1" parent="1">
          <mxGeometry x="140" y="560" width="30" height="30" as="geometry" />
        </mxCell>
        <mxCell id="8HGexeS4JNVXXf2vU-yx-48" value="&lt;span style=&quot;font-size:11.0pt;line-height:107%;&lt;br/&gt;font-family:&amp;quot;Calibri&amp;quot;,sans-serif;mso-ascii-theme-font:minor-latin;mso-fareast-font-family:&lt;br/&gt;Calibri;mso-fareast-theme-font:minor-latin;mso-hansi-theme-font:minor-latin;&lt;br/&gt;mso-bidi-font-family:&amp;quot;Times New Roman&amp;quot;;mso-bidi-theme-font:minor-bidi;&lt;br/&gt;mso-ansi-language:RU;mso-fareast-language:EN-US;mso-bidi-language:AR-SA&quot;&gt;λ*p1&lt;/span&gt;" style="edgeLabel;html=1;align=center;verticalAlign=middle;resizable=0;points=[];" vertex="1" connectable="0" parent="1">
          <mxGeometry x="380.0014285714287" y="660" as="geometry" />
        </mxCell>
        <mxCell id="8HGexeS4JNVXXf2vU-yx-49" value="&lt;span style=&quot;color: rgb(34, 34, 34); font-family: &amp;quot;times new roman&amp;quot;; font-style: normal; font-variant-ligatures: normal; font-variant-caps: normal; font-weight: 400; letter-spacing: normal; orphans: 2; text-align: center; text-indent: 0px; text-transform: none; widows: 2; word-spacing: 0px; -webkit-text-stroke-width: 0px; white-space: normal; background-color: rgb(255, 255, 255); text-decoration-thickness: initial; text-decoration-style: initial; text-decoration-color: initial; float: none; display: inline !important;&quot;&gt;&lt;font style=&quot;font-size: 19px;&quot;&gt;μ&lt;/font&gt;&lt;/span&gt;" style="text;whiteSpace=wrap;html=1;" vertex="1" parent="1">
          <mxGeometry x="370" y="590" width="30" height="30" as="geometry" />
        </mxCell>
        <mxCell id="8HGexeS4JNVXXf2vU-yx-50" value="&lt;span style=&quot;color: rgb(34, 34, 34); font-family: &amp;quot;times new roman&amp;quot;; font-style: normal; font-variant-ligatures: normal; font-variant-caps: normal; font-weight: 400; letter-spacing: normal; orphans: 2; text-align: center; text-indent: 0px; text-transform: none; widows: 2; word-spacing: 0px; -webkit-text-stroke-width: 0px; white-space: normal; background-color: rgb(255, 255, 255); text-decoration-thickness: initial; text-decoration-style: initial; text-decoration-color: initial; float: none; display: inline !important;&quot;&gt;&lt;font style=&quot;font-size: 19px;&quot;&gt;μ&lt;/font&gt;&lt;/span&gt;" style="text;whiteSpace=wrap;html=1;" vertex="1" parent="1">
          <mxGeometry x="70" y="600" width="30" height="30" as="geometry" />
        </mxCell>
        <mxCell id="8HGexeS4JNVXXf2vU-yx-51" value="&lt;span style=&quot;color: rgb(34, 34, 34); font-family: &amp;quot;times new roman&amp;quot;; font-style: normal; font-variant-ligatures: normal; font-variant-caps: normal; font-weight: 400; letter-spacing: normal; orphans: 2; text-align: center; text-indent: 0px; text-transform: none; widows: 2; word-spacing: 0px; -webkit-text-stroke-width: 0px; white-space: normal; background-color: rgb(255, 255, 255); text-decoration-thickness: initial; text-decoration-style: initial; text-decoration-color: initial; float: none; display: inline !important;&quot;&gt;&lt;font style=&quot;font-size: 19px;&quot;&gt;μ&lt;/font&gt;&lt;/span&gt;" style="text;whiteSpace=wrap;html=1;" vertex="1" parent="1">
          <mxGeometry x="10" y="600" width="30" height="30" as="geometry" />
        </mxCell>
        <mxCell id="8HGexeS4JNVXXf2vU-yx-52" value="&lt;span style=&quot;font-size:11.0pt;line-height:107%;&lt;br/&gt;font-family:&amp;quot;Calibri&amp;quot;,sans-serif;mso-ascii-theme-font:minor-latin;mso-fareast-font-family:&lt;br/&gt;Calibri;mso-fareast-theme-font:minor-latin;mso-hansi-theme-font:minor-latin;&lt;br/&gt;mso-bidi-font-family:&amp;quot;Times New Roman&amp;quot;;mso-bidi-theme-font:minor-bidi;&lt;br/&gt;mso-ansi-language:RU;mso-fareast-language:EN-US;mso-bidi-language:AR-SA&quot;&gt;λ*p1&lt;/span&gt;" style="edgeLabel;html=1;align=center;verticalAlign=middle;resizable=0;points=[];" vertex="1" connectable="0" parent="1">
          <mxGeometry x="380.0014285714287" y="820" as="geometry" />
        </mxCell>
        <mxCell id="8HGexeS4JNVXXf2vU-yx-53" value="&lt;span style=&quot;color: rgb(34, 34, 34); font-family: &amp;quot;times new roman&amp;quot;; font-style: normal; font-variant-ligatures: normal; font-variant-caps: normal; font-weight: 400; letter-spacing: normal; orphans: 2; text-align: center; text-indent: 0px; text-transform: none; widows: 2; word-spacing: 0px; -webkit-text-stroke-width: 0px; white-space: normal; background-color: rgb(255, 255, 255); text-decoration-thickness: initial; text-decoration-style: initial; text-decoration-color: initial; float: none; display: inline !important;&quot;&gt;&lt;font style=&quot;font-size: 19px;&quot;&gt;μ&lt;/font&gt;&lt;/span&gt;" style="text;whiteSpace=wrap;html=1;" vertex="1" parent="1">
          <mxGeometry x="365" y="750" width="30" height="30" as="geometry" />
        </mxCell>
        <mxCell id="8HGexeS4JNVXXf2vU-yx-54" value="&lt;span style=&quot;font-size:11.0pt;line-height:107%;&lt;br/&gt;font-family:&amp;quot;Calibri&amp;quot;,sans-serif;mso-ascii-theme-font:minor-latin;mso-fareast-font-family:&lt;br/&gt;Calibri;mso-fareast-theme-font:minor-latin;mso-hansi-theme-font:minor-latin;&lt;br/&gt;mso-bidi-font-family:&amp;quot;Times New Roman&amp;quot;;mso-bidi-theme-font:minor-bidi;&lt;br/&gt;mso-ansi-language:RU;mso-fareast-language:EN-US;mso-bidi-language:AR-SA&quot;&gt;λ*p1&lt;/span&gt;" style="edgeLabel;html=1;align=center;verticalAlign=middle;resizable=0;points=[];" vertex="1" connectable="0" parent="1">
          <mxGeometry x="380.0014285714287" y="990" as="geometry" />
        </mxCell>
        <mxCell id="8HGexeS4JNVXXf2vU-yx-55" value="&lt;span style=&quot;color: rgb(34, 34, 34); font-family: &amp;quot;times new roman&amp;quot;; font-style: normal; font-variant-ligatures: normal; font-variant-caps: normal; font-weight: 400; letter-spacing: normal; orphans: 2; text-align: center; text-indent: 0px; text-transform: none; widows: 2; word-spacing: 0px; -webkit-text-stroke-width: 0px; white-space: normal; background-color: rgb(255, 255, 255); text-decoration-thickness: initial; text-decoration-style: initial; text-decoration-color: initial; float: none; display: inline !important;&quot;&gt;&lt;font style=&quot;font-size: 19px;&quot;&gt;μ&lt;/font&gt;&lt;/span&gt;" style="text;whiteSpace=wrap;html=1;" vertex="1" parent="1">
          <mxGeometry x="370" y="920" width="30" height="30" as="geometry" />
        </mxCell>
        <mxCell id="8HGexeS4JNVXXf2vU-yx-56" value="&lt;span style=&quot;color: rgb(34, 34, 34); font-family: &amp;quot;times new roman&amp;quot;; font-style: normal; font-variant-ligatures: normal; font-variant-caps: normal; font-weight: 400; letter-spacing: normal; orphans: 2; text-align: center; text-indent: 0px; text-transform: none; widows: 2; word-spacing: 0px; -webkit-text-stroke-width: 0px; white-space: normal; background-color: rgb(255, 255, 255); text-decoration-thickness: initial; text-decoration-style: initial; text-decoration-color: initial; float: none; display: inline !important;&quot;&gt;&lt;font style=&quot;font-size: 19px;&quot;&gt;μ&lt;/font&gt;&lt;/span&gt;" style="text;whiteSpace=wrap;html=1;" vertex="1" parent="1">
          <mxGeometry x="85" y="865" width="30" height="30" as="geometry" />
        </mxCell>
        <mxCell id="8HGexeS4JNVXXf2vU-yx-58" value="&lt;span style=&quot;font-size:11.0pt;line-height:107%;&lt;br/&gt;font-family:&amp;quot;Calibri&amp;quot;,sans-serif;mso-ascii-theme-font:minor-latin;mso-fareast-font-family:&lt;br/&gt;Calibri;mso-fareast-theme-font:minor-latin;mso-hansi-theme-font:minor-latin;&lt;br/&gt;mso-bidi-font-family:&amp;quot;Times New Roman&amp;quot;;mso-bidi-theme-font:minor-bidi;&lt;br/&gt;mso-ansi-language:RU;mso-fareast-language:EN-US;mso-bidi-language:AR-SA&quot;&gt;λ*p2&lt;/span&gt;" style="edgeLabel;html=1;align=center;verticalAlign=middle;resizable=0;points=[];" vertex="1" connectable="0" parent="1">
          <mxGeometry x="320.0014285714287" y="990" as="geometry" />
        </mxCell>
        <mxCell id="8HGexeS4JNVXXf2vU-yx-59" value="&lt;span style=&quot;font-size:11.0pt;line-height:107%;&lt;br/&gt;font-family:&amp;quot;Calibri&amp;quot;,sans-serif;mso-ascii-theme-font:minor-latin;mso-fareast-font-family:&lt;br/&gt;Calibri;mso-fareast-theme-font:minor-latin;mso-hansi-theme-font:minor-latin;&lt;br/&gt;mso-bidi-font-family:&amp;quot;Times New Roman&amp;quot;;mso-bidi-theme-font:minor-bidi;&lt;br/&gt;mso-ansi-language:RU;mso-fareast-language:EN-US;mso-bidi-language:AR-SA&quot;&gt;λ*p2&lt;/span&gt;" style="edgeLabel;html=1;align=center;verticalAlign=middle;resizable=0;points=[];" vertex="1" connectable="0" parent="1">
          <mxGeometry x="310.0014285714287" y="670" as="geometry" />
        </mxCell>
        <mxCell id="8HGexeS4JNVXXf2vU-yx-60" value="&lt;span style=&quot;color: rgb(34, 34, 34); font-family: &amp;quot;times new roman&amp;quot;; font-style: normal; font-variant-ligatures: normal; font-variant-caps: normal; font-weight: 400; letter-spacing: normal; orphans: 2; text-align: center; text-indent: 0px; text-transform: none; widows: 2; word-spacing: 0px; -webkit-text-stroke-width: 0px; white-space: normal; background-color: rgb(255, 255, 255); text-decoration-thickness: initial; text-decoration-style: initial; text-decoration-color: initial; float: none; display: inline !important;&quot;&gt;&lt;font style=&quot;font-size: 19px;&quot;&gt;μ&lt;/font&gt;&lt;/span&gt;" style="text;whiteSpace=wrap;html=1;" vertex="1" parent="1">
          <mxGeometry x="80" y="680" width="30" height="30" as="geometry" />
        </mxCell>
        <mxCell id="8HGexeS4JNVXXf2vU-yx-61" value="&lt;span style=&quot;font-size:11.0pt;line-height:107%;&lt;br/&gt;font-family:&amp;quot;Calibri&amp;quot;,sans-serif;mso-ascii-theme-font:minor-latin;mso-fareast-font-family:&lt;br/&gt;Calibri;mso-fareast-theme-font:minor-latin;mso-hansi-theme-font:minor-latin;&lt;br/&gt;mso-bidi-font-family:&amp;quot;Times New Roman&amp;quot;;mso-bidi-theme-font:minor-bidi;&lt;br/&gt;mso-ansi-language:RU;mso-fareast-language:EN-US;mso-bidi-language:AR-SA&quot;&gt;λ*p2&lt;/span&gt;" style="edgeLabel;html=1;align=center;verticalAlign=middle;resizable=0;points=[];" vertex="1" connectable="0" parent="1">
          <mxGeometry x="300.0014285714287" y="860" as="geometry" />
        </mxCell>
        <mxCell id="8HGexeS4JNVXXf2vU-yx-62" value="&lt;span style=&quot;font-size:11.0pt;line-height:107%;&lt;br/&gt;font-family:&amp;quot;Calibri&amp;quot;,sans-serif;mso-ascii-theme-font:minor-latin;mso-fareast-font-family:&lt;br/&gt;Calibri;mso-fareast-theme-font:minor-latin;mso-hansi-theme-font:minor-latin;&lt;br/&gt;mso-bidi-font-family:&amp;quot;Times New Roman&amp;quot;;mso-bidi-theme-font:minor-bidi;&lt;br/&gt;mso-ansi-language:RU;mso-fareast-language:EN-US;mso-bidi-language:AR-SA&quot;&gt;λ*p1&lt;/span&gt;" style="edgeLabel;html=1;align=center;verticalAlign=middle;resizable=0;points=[];" vertex="1" connectable="0" parent="1">
          <mxGeometry x="260.0014285714287" y="1030" as="geometry" />
        </mxCell>
        <mxCell id="8HGexeS4JNVXXf2vU-yx-63" value="&lt;span style=&quot;color: rgb(34, 34, 34); font-family: &amp;quot;times new roman&amp;quot;; font-style: normal; font-variant-ligatures: normal; font-variant-caps: normal; font-weight: 400; letter-spacing: normal; orphans: 2; text-align: center; text-indent: 0px; text-transform: none; widows: 2; word-spacing: 0px; -webkit-text-stroke-width: 0px; white-space: normal; background-color: rgb(255, 255, 255); text-decoration-thickness: initial; text-decoration-style: initial; text-decoration-color: initial; float: none; display: inline !important;&quot;&gt;&lt;font style=&quot;font-size: 19px;&quot;&gt;μ&lt;/font&gt;&lt;/span&gt;" style="text;whiteSpace=wrap;html=1;" vertex="1" parent="1">
          <mxGeometry x="295" y="1040" width="30" height="30" as="geometry" />
        </mxCell>
        <mxCell id="8HGexeS4JNVXXf2vU-yx-64" value="&lt;span style=&quot;color: rgb(34, 34, 34); font-family: &amp;quot;times new roman&amp;quot;; font-style: normal; font-variant-ligatures: normal; font-variant-caps: normal; font-weight: 400; letter-spacing: normal; orphans: 2; text-align: center; text-indent: 0px; text-transform: none; widows: 2; word-spacing: 0px; -webkit-text-stroke-width: 0px; white-space: normal; background-color: rgb(255, 255, 255); text-decoration-thickness: initial; text-decoration-style: initial; text-decoration-color: initial; float: none; display: inline !important;&quot;&gt;&lt;font style=&quot;font-size: 19px;&quot;&gt;μ&lt;/font&gt;&lt;/span&gt;" style="text;whiteSpace=wrap;html=1;" vertex="1" parent="1">
          <mxGeometry x="80" y="1040" width="30" height="30" as="geometry" />
        </mxCell>
        <mxCell id="8HGexeS4JNVXXf2vU-yx-65" value="&lt;span style=&quot;font-size:11.0pt;line-height:107%;&lt;br/&gt;font-family:&amp;quot;Calibri&amp;quot;,sans-serif;mso-ascii-theme-font:minor-latin;mso-fareast-font-family:&lt;br/&gt;Calibri;mso-fareast-theme-font:minor-latin;mso-hansi-theme-font:minor-latin;&lt;br/&gt;mso-bidi-font-family:&amp;quot;Times New Roman&amp;quot;;mso-bidi-theme-font:minor-bidi;&lt;br/&gt;mso-ansi-language:RU;mso-fareast-language:EN-US;mso-bidi-language:AR-SA&quot;&gt;λ*p2&lt;/span&gt;" style="edgeLabel;html=1;align=center;verticalAlign=middle;resizable=0;points=[];" vertex="1" connectable="0" parent="1">
          <mxGeometry x="140.00142857142868" y="1055" as="geometry" />
        </mxCell>
        <mxCell id="8HGexeS4JNVXXf2vU-yx-66" value="&lt;span style=&quot;color: rgb(34, 34, 34); font-family: &amp;quot;times new roman&amp;quot;; font-style: normal; font-variant-ligatures: normal; font-variant-caps: normal; font-weight: 400; letter-spacing: normal; orphans: 2; text-align: center; text-indent: 0px; text-transform: none; widows: 2; word-spacing: 0px; -webkit-text-stroke-width: 0px; white-space: normal; background-color: rgb(255, 255, 255); text-decoration-thickness: initial; text-decoration-style: initial; text-decoration-color: initial; float: none; display: inline !important;&quot;&gt;&lt;font style=&quot;font-size: 19px;&quot;&gt;μ&lt;/font&gt;&lt;/span&gt;" style="text;whiteSpace=wrap;html=1;" vertex="1" parent="1">
          <mxGeometry x="50" y="920" width="30" height="30" as="geometry" />
        </mxCell>
        <mxCell id="8HGexeS4JNVXXf2vU-yx-67" value="&lt;span style=&quot;font-size:11.0pt;line-height:107%;&lt;br/&gt;font-family:&amp;quot;Calibri&amp;quot;,sans-serif;mso-ascii-theme-font:minor-latin;mso-fareast-font-family:&lt;br/&gt;Calibri;mso-fareast-theme-font:minor-latin;mso-hansi-theme-font:minor-latin;&lt;br/&gt;mso-bidi-font-family:&amp;quot;Times New Roman&amp;quot;;mso-bidi-theme-font:minor-bidi;&lt;br/&gt;mso-ansi-language:RU;mso-fareast-language:EN-US;mso-bidi-language:AR-SA&quot;&gt;λ*p1&lt;/span&gt;" style="edgeLabel;html=1;align=center;verticalAlign=middle;resizable=0;points=[];" vertex="1" connectable="0" parent="1">
          <mxGeometry x="65.00142857142868" y="990" as="geometry" />
        </mxCell>
        <mxCell id="8HGexeS4JNVXXf2vU-yx-68" value="&lt;span style=&quot;font-size:11.0pt;line-height:107%;&lt;br/&gt;font-family:&amp;quot;Calibri&amp;quot;,sans-serif;mso-ascii-theme-font:minor-latin;mso-fareast-font-family:&lt;br/&gt;Calibri;mso-fareast-theme-font:minor-latin;mso-hansi-theme-font:minor-latin;&lt;br/&gt;mso-bidi-font-family:&amp;quot;Times New Roman&amp;quot;;mso-bidi-theme-font:minor-bidi;&lt;br/&gt;mso-ansi-language:RU;mso-fareast-language:EN-US;mso-bidi-language:AR-SA&quot;&gt;λ*p1&lt;/span&gt;" style="edgeLabel;html=1;align=center;verticalAlign=middle;resizable=0;points=[];" vertex="1" connectable="0" parent="1">
          <mxGeometry x="65.00142857142868" y="830" as="geometry" />
        </mxCell>
        <mxCell id="8HGexeS4JNVXXf2vU-yx-69" value="&lt;span style=&quot;color: rgb(34, 34, 34); font-family: &amp;quot;times new roman&amp;quot;; font-style: normal; font-variant-ligatures: normal; font-variant-caps: normal; font-weight: 400; letter-spacing: normal; orphans: 2; text-align: center; text-indent: 0px; text-transform: none; widows: 2; word-spacing: 0px; -webkit-text-stroke-width: 0px; white-space: normal; background-color: rgb(255, 255, 255); text-decoration-thickness: initial; text-decoration-style: initial; text-decoration-color: initial; float: none; display: inline !important;&quot;&gt;&lt;font style=&quot;font-size: 19px;&quot;&gt;μ&lt;/font&gt;&lt;/span&gt;" style="text;whiteSpace=wrap;html=1;" vertex="1" parent="1">
          <mxGeometry x="50" y="760" width="30" height="30" as="geometry" />
        </mxCell>
        <mxCell id="8HGexeS4JNVXXf2vU-yx-70" value="&lt;span style=&quot;font-size:11.0pt;line-height:107%;&lt;br/&gt;font-family:&amp;quot;Calibri&amp;quot;,sans-serif;mso-ascii-theme-font:minor-latin;mso-fareast-font-family:&lt;br/&gt;Calibri;mso-fareast-theme-font:minor-latin;mso-hansi-theme-font:minor-latin;&lt;br/&gt;mso-bidi-font-family:&amp;quot;Times New Roman&amp;quot;;mso-bidi-theme-font:minor-bidi;&lt;br/&gt;mso-ansi-language:RU;mso-fareast-language:EN-US;mso-bidi-language:AR-SA&quot;&gt;λ*p1&lt;/span&gt;" style="edgeLabel;html=1;align=center;verticalAlign=middle;resizable=0;points=[];" vertex="1" connectable="0" parent="1">
          <mxGeometry x="60.00142857142867" y="670" as="geometry" />
        </mxCell>
      </root>
    </mxGraphModel>
  </diagram>
</mxfile>
